<?xml version="1.0" encoding="UTF-8"?>
<svg id="Layer_4" data-name="Layer 4" xmlns="http://www.w3.org/2000/svg" viewBox="0 0 445.79 457">
  <defs>
    <style>
      .cls-1 {
        fill: #e50b7b;
      }
    </style>
  </defs>
  <circle class="cls-1" cx="179.7" cy="145.49" r="6.3"/>
  <circle class="cls-1" cx="116.38" cy="155.96" r="6.3"/>
  <circle class="cls-1" cx="140.93" cy="95.73" r="7.23"/>
  <circle class="cls-1" cx="132.08" cy="219.3" r="6.3"/>
  <circle class="cls-1" cx="203.06" cy="87.56" r="6.3"/>
  <circle class="cls-1" cx="172.89" cy="246.88" r="6.3"/>
  <circle class="cls-1" cx="181.06" cy="293.22" r="6.3"/>
  <circle class="cls-1" cx="203.06" cy="318.2" r="6.3"/>
  <circle class="cls-1" cx="200.66" cy="347.86" r="6.3"/>
  <rect class="cls-1" x="172.89" y="243.88" width="53.53" height="6"/>
  <polygon class="cls-1" points="226.42 268.86 226.42 274.86 197.25 274.86 186.54 290.13 182.15 296.39 177.24 292.94 181.45 286.94 194.14 268.86 226.42 268.86"/>
  <rect class="cls-1" x="203.06" y="315.2" width="23.36" height="6"/>
  <polygon class="cls-1" points="226.42 366.09 226.42 372.09 210.61 372.09 200.6 354.16 198.35 350.13 203.59 347.2 205.9 351.34 214.14 366.09 226.42 366.09"/>
  <polygon class="cls-1" points="226.42 55.89 226.42 61.89 195.11 61.89 147.7 93.21 146.28 94.15 142.98 89.14 143.32 88.92 193.3 55.89 226.42 55.89"/>
  <rect class="cls-1" x="205.22" y="84.56" width="21.2" height="6"/>
  <polygon class="cls-1" points="226.74 114.05 203.89 119.35 185.46 142.98 182.06 147.34 177.33 143.65 180.73 139.29 200.46 113.98 226.42 107.97 226.42 114.05 226.74 114.05"/>
  <circle class="cls-1" cx="179.7" cy="184.86" r="6.3"/>
  <g>
    <path class="cls-1" d="m335.7,165.18c0,16.1-3.49,31.38-9.74,45.14-14.76,32.5-77.37,153.99-94.94,188-.97,1.87-2.79,2.8-4.6,2.79v-184.81c.88,0,1.77-.02,2.66-.06,25.98-1.32,47.08-22.43,48.4-48.4,1.48-29.34-21.77-53.61-50.74-53.79h-.32v-58.14c60.35,0,109.28,48.92,109.28,109.27Z"/>
    <polygon class="cls-1" points="226.42 216.31 226.42 222.52 200.45 215.65 180.8 191.06 177.35 186.73 182.04 182.99 185.5 187.31 185.5 187.32 203.9 210.36 226.42 216.31"/>
  </g>
  <polygon class="cls-1" points="129.49 220.09 111.88 155.42 138.17 94.55 143.68 96.92 118.23 155.88 135.27 218.51 129.49 220.09"/>
</svg>